<mxfile host="Electron" agent="Mozilla/5.0 (Windows NT 10.0; Win64; x64) AppleWebKit/537.36 (KHTML, like Gecko) draw.io/26.0.9 Chrome/128.0.6613.186 Electron/32.2.5 Safari/537.36" version="26.0.9">
  <diagram name="Page-1" id="EgeyweiTuIXJqiRWAHfw">
    <mxGraphModel dx="1418" dy="902" grid="1" gridSize="10" guides="1" tooltips="1" connect="1" arrows="1" fold="1" page="1" pageScale="1" pageWidth="827" pageHeight="1169" math="0" shadow="0">
      <root>
        <mxCell id="0" />
        <mxCell id="1" parent="0" />
        <mxCell id="UYn1bIg7BdbCypP9G_8U-17" value="" style="group" vertex="1" connectable="0" parent="1">
          <mxGeometry x="129" y="130" width="570" height="570" as="geometry" />
        </mxCell>
        <mxCell id="UYn1bIg7BdbCypP9G_8U-1" value="Utilisateur" style="shape=umlActor;verticalLabelPosition=bottom;verticalAlign=top;html=1;outlineConnect=0;" vertex="1" parent="UYn1bIg7BdbCypP9G_8U-17">
          <mxGeometry y="280" width="60" height="110" as="geometry" />
        </mxCell>
        <mxCell id="UYn1bIg7BdbCypP9G_8U-2" value="s&#39;inscrire" style="ellipse;whiteSpace=wrap;html=1;" vertex="1" parent="UYn1bIg7BdbCypP9G_8U-17">
          <mxGeometry x="190" y="110" width="120" height="80" as="geometry" />
        </mxCell>
        <mxCell id="UYn1bIg7BdbCypP9G_8U-3" value="publier une annonce" style="ellipse;whiteSpace=wrap;html=1;" vertex="1" parent="UYn1bIg7BdbCypP9G_8U-17">
          <mxGeometry x="190" y="220" width="120" height="80" as="geometry" />
        </mxCell>
        <mxCell id="UYn1bIg7BdbCypP9G_8U-5" value="ajouter un commentaire" style="ellipse;whiteSpace=wrap;html=1;" vertex="1" parent="UYn1bIg7BdbCypP9G_8U-17">
          <mxGeometry x="190" y="340" width="120" height="80" as="geometry" />
        </mxCell>
        <mxCell id="UYn1bIg7BdbCypP9G_8U-6" value="rechercher des objets" style="ellipse;whiteSpace=wrap;html=1;" vertex="1" parent="UYn1bIg7BdbCypP9G_8U-17">
          <mxGeometry x="190" y="460" width="120" height="80" as="geometry" />
        </mxCell>
        <mxCell id="UYn1bIg7BdbCypP9G_8U-8" value="s&#39;authentifier" style="ellipse;whiteSpace=wrap;html=1;" vertex="1" parent="UYn1bIg7BdbCypP9G_8U-17">
          <mxGeometry x="410" y="280" width="120" height="80" as="geometry" />
        </mxCell>
        <mxCell id="UYn1bIg7BdbCypP9G_8U-9" value="" style="endArrow=none;html=1;rounded=0;entryX=0.039;entryY=0.604;entryDx=0;entryDy=0;entryPerimeter=0;" edge="1" parent="UYn1bIg7BdbCypP9G_8U-17" target="UYn1bIg7BdbCypP9G_8U-2">
          <mxGeometry width="50" height="50" relative="1" as="geometry">
            <mxPoint x="70" y="320" as="sourcePoint" />
            <mxPoint x="240" y="320" as="targetPoint" />
          </mxGeometry>
        </mxCell>
        <mxCell id="UYn1bIg7BdbCypP9G_8U-10" value="" style="endArrow=none;html=1;rounded=0;entryX=0;entryY=0.5;entryDx=0;entryDy=0;" edge="1" parent="UYn1bIg7BdbCypP9G_8U-17" target="UYn1bIg7BdbCypP9G_8U-3">
          <mxGeometry width="50" height="50" relative="1" as="geometry">
            <mxPoint x="70" y="335" as="sourcePoint" />
            <mxPoint x="205" y="168" as="targetPoint" />
          </mxGeometry>
        </mxCell>
        <mxCell id="UYn1bIg7BdbCypP9G_8U-11" value="" style="endArrow=none;html=1;rounded=0;entryX=0;entryY=0.5;entryDx=0;entryDy=0;" edge="1" parent="UYn1bIg7BdbCypP9G_8U-17" target="UYn1bIg7BdbCypP9G_8U-5">
          <mxGeometry width="50" height="50" relative="1" as="geometry">
            <mxPoint x="70" y="350" as="sourcePoint" />
            <mxPoint x="200" y="270" as="targetPoint" />
          </mxGeometry>
        </mxCell>
        <mxCell id="UYn1bIg7BdbCypP9G_8U-12" value="" style="endArrow=none;html=1;rounded=0;entryX=0;entryY=0.5;entryDx=0;entryDy=0;" edge="1" parent="UYn1bIg7BdbCypP9G_8U-17" target="UYn1bIg7BdbCypP9G_8U-6">
          <mxGeometry width="50" height="50" relative="1" as="geometry">
            <mxPoint x="70" y="360" as="sourcePoint" />
            <mxPoint x="200" y="390" as="targetPoint" />
          </mxGeometry>
        </mxCell>
        <mxCell id="UYn1bIg7BdbCypP9G_8U-13" value="&amp;lt;&amp;lt;include&amp;gt;&amp;gt;" style="html=1;verticalAlign=bottom;labelBackgroundColor=none;endArrow=open;endFill=0;dashed=1;rounded=0;entryX=0;entryY=0.5;entryDx=0;entryDy=0;exitX=1;exitY=0.5;exitDx=0;exitDy=0;" edge="1" parent="UYn1bIg7BdbCypP9G_8U-17" source="UYn1bIg7BdbCypP9G_8U-3" target="UYn1bIg7BdbCypP9G_8U-8">
          <mxGeometry width="160" relative="1" as="geometry">
            <mxPoint x="130" y="340" as="sourcePoint" />
            <mxPoint x="290" y="340" as="targetPoint" />
          </mxGeometry>
        </mxCell>
        <mxCell id="UYn1bIg7BdbCypP9G_8U-14" value="&amp;lt;&amp;lt;include&amp;gt;&amp;gt;" style="html=1;verticalAlign=bottom;labelBackgroundColor=none;endArrow=open;endFill=0;dashed=1;rounded=0;entryX=0.067;entryY=0.779;entryDx=0;entryDy=0;exitX=1;exitY=0.5;exitDx=0;exitDy=0;entryPerimeter=0;" edge="1" parent="UYn1bIg7BdbCypP9G_8U-17" source="UYn1bIg7BdbCypP9G_8U-5" target="UYn1bIg7BdbCypP9G_8U-8">
          <mxGeometry width="160" relative="1" as="geometry">
            <mxPoint x="320" y="270" as="sourcePoint" />
            <mxPoint x="420" y="330" as="targetPoint" />
          </mxGeometry>
        </mxCell>
        <mxCell id="UYn1bIg7BdbCypP9G_8U-15" value="" style="rounded=0;whiteSpace=wrap;html=1;fillColor=none;" vertex="1" parent="UYn1bIg7BdbCypP9G_8U-17">
          <mxGeometry x="100" width="470" height="570" as="geometry" />
        </mxCell>
        <mxCell id="UYn1bIg7BdbCypP9G_8U-16" value="Plateforme pour trouver ou publier des objet pÃ©rdu" style="text;html=1;align=center;verticalAlign=middle;whiteSpace=wrap;rounded=0;fontSize=22;" vertex="1" parent="UYn1bIg7BdbCypP9G_8U-17">
          <mxGeometry x="190" y="20" width="280" height="30" as="geometry" />
        </mxCell>
      </root>
    </mxGraphModel>
  </diagram>
</mxfile>
